<?xml version="1.0" standalone="no"?>
<!DOCTYPE svg PUBLIC "-//W3C//DTD SVG 20010904//EN"
 "http://www.w3.org/TR/2001/REC-SVG-20010904/DTD/svg10.dtd">
<svg version="1.0" xmlns="http://www.w3.org/2000/svg"
 width="900.000000pt" height="900.000000pt" viewBox="0 0 900.000000 900.000000"
 preserveAspectRatio="xMidYMid meet">
<metadata>
Created by potrace 1.10, written by Peter Selinger 2001-2011
</metadata>
<g transform="translate(0.000000,900.000000) scale(0.100000,-0.100000)"
fill="#00c7fc" stroke="none">
<path d="M3490 7201 c-30 -4 -65 -12 -77 -19 -12 -7 -29 -12 -38 -12 -9 0 -41
-12 -71 -27 -59 -29 -184 -146 -184 -173 0 -8 -6 -24 -14 -35 -13 -20 -40
-191 -31 -205 2 -3 9 -37 15 -75 6 -38 19 -79 30 -93 11 -13 20 -32 20 -40 0
-9 20 -46 45 -83 76 -114 71 -118 -170 -158 -55 -9 -172 -54 -250 -95 -63 -34
-269 -223 -319 -293 -20 -29 -41 -53 -45 -53 -4 0 -29 -35 -56 -77 -51 -80
-88 -170 -110 -263 -7 -30 -17 -73 -23 -95 -26 -100 -32 -151 -37 -309 -3 -94
-9 -174 -15 -181 -6 -7 -43 -23 -83 -35 -39 -12 -80 -26 -89 -31 -10 -5 -25
-9 -33 -9 -70 0 -299 -110 -400 -192 -106 -86 -171 -164 -219 -264 -10 -21
-22 -47 -27 -56 -16 -31 -47 -133 -53 -173 -3 -22 -10 -60 -15 -85 -6 -25 -10
-92 -11 -150 0 -114 29 -258 72 -355 31 -69 112 -190 167 -249 102 -110 267
-256 289 -256 5 0 16 -7 23 -17 8 -9 36 -26 63 -39 33 -15 56 -35 72 -62 21
-36 23 -46 16 -118 -10 -119 -5 -373 8 -419 28 -92 78 -205 122 -271 28 -42
119 -134 173 -175 17 -13 32 -26 35 -29 24 -28 248 -130 286 -130 14 0 33 -4
43 -9 58 -31 361 -41 476 -16 39 9 88 20 110 24 22 5 56 15 75 22 47 19 297
146 329 168 14 10 33 20 41 24 13 5 97 70 199 154 18 15 55 49 81 75 55 54
107 88 133 88 10 0 62 -23 115 -52 53 -28 115 -61 137 -72 22 -10 47 -24 55
-31 8 -6 51 -26 95 -44 44 -18 94 -38 110 -45 49 -21 140 -46 169 -46 15 0 40
-7 55 -15 75 -38 472 -41 548 -3 12 6 29 8 38 4 9 -3 37 4 63 15 149 68 178
81 192 90 8 5 29 15 45 22 56 25 268 222 314 291 9 13 30 43 46 66 17 24 35
50 40 59 68 110 104 172 109 189 10 32 59 62 100 62 20 0 55 -8 79 -19 85 -37
103 -43 157 -52 156 -25 454 -29 540 -6 132 35 218 77 319 155 159 123 222
199 295 353 14 31 26 64 26 73 0 10 4 26 10 36 11 21 31 141 35 215 3 53 -18
222 -36 290 -5 22 -15 58 -20 80 -5 22 -19 52 -29 67 -11 15 -20 32 -20 39 0
6 -16 32 -36 57 -19 26 -61 83 -93 127 -79 111 -292 322 -396 395 -27 19 -53
38 -56 43 -3 4 -41 30 -85 57 -150 93 -148 91 -175 274 -28 194 -67 316 -139
437 -51 86 -65 102 -186 223 -52 53 -124 111 -170 140 -43 27 -95 59 -114 71
-19 13 -46 26 -60 30 -14 4 -41 15 -60 25 -44 23 -85 37 -130 45 -19 4 -44 13
-55 20 -11 7 -38 15 -60 19 -22 3 -51 8 -65 11 -60 10 -131 16 -211 16 -89 0
-277 -27 -293 -42 -6 -5 -18 -9 -28 -9 -22 0 -153 -67 -169 -87 -6 -7 -15 -13
-20 -13 -20 0 -111 -64 -163 -115 -31 -30 -60 -55 -65 -55 -5 0 -31 -18 -57
-40 -27 -22 -55 -40 -62 -40 -14 0 -212 197 -212 211 0 4 -8 10 -18 13 -10 4
-37 24 -60 46 -23 22 -45 40 -51 40 -5 0 -27 15 -50 34 -35 30 -88 57 -306
161 -27 13 -70 29 -95 36 -25 7 -52 18 -60 25 -9 7 -25 11 -36 8 -12 -3 -38 4
-60 15 -21 12 -44 21 -50 21 -27 0 -92 62 -128 121 -22 35 -52 80 -68 99 -85
107 -102 136 -115 200 -21 98 -4 166 51 212 16 13 40 17 92 18 61 0 76 -4 117
-30 26 -16 47 -34 47 -39 0 -15 103 -116 148 -146 53 -35 100 -27 153 26 36
36 39 43 39 97 0 51 -5 66 -41 121 -81 124 -182 204 -329 260 -57 22 -67 22
-160 12z m166 -88 c75 -24 119 -57 210 -162 84 -94 106 -141 94 -191 -5 -21
-12 -25 -51 -28 -49 -3 -91 21 -110 62 -35 77 -64 111 -121 147 -95 58 -240
60 -313 5 -62 -47 -79 -89 -79 -187 1 -64 5 -94 17 -113 10 -14 17 -31 17 -37
0 -6 37 -66 81 -133 94 -139 125 -193 134 -237 8 -34 39 -52 110 -64 22 -3 49
-10 60 -14 11 -4 52 -18 90 -30 71 -23 124 -42 182 -67 17 -8 35 -14 41 -14 5
0 15 -7 22 -15 7 -8 18 -15 26 -15 15 0 174 -94 243 -144 77 -55 224 -202 286
-285 34 -46 67 -81 77 -81 10 0 30 12 46 28 30 29 79 71 158 137 26 22 55 48
63 58 9 9 19 17 24 17 5 0 34 19 65 43 90 66 136 90 227 119 28 9 73 23 101
32 71 22 319 23 371 1 19 -8 47 -15 60 -15 26 0 102 -22 160 -47 17 -7 38 -13
46 -13 8 0 20 -7 27 -15 7 -8 20 -15 30 -15 9 0 37 -11 61 -25 24 -13 53 -29
64 -35 11 -6 34 -19 50 -30 17 -11 38 -23 48 -26 9 -4 17 -10 17 -13 0 -4 21
-23 47 -41 58 -42 117 -100 169 -165 21 -27 41 -52 44 -55 3 -3 13 -21 24 -40
10 -19 31 -59 47 -89 16 -30 29 -60 29 -67 0 -7 6 -28 14 -46 30 -72 48 -183
51 -311 l3 -131 38 -20 c22 -11 48 -24 59 -29 80 -40 181 -102 200 -123 6 -7
15 -13 21 -15 39 -13 313 -281 384 -376 24 -32 49 -62 54 -68 29 -27 136 -215
136 -238 0 -5 6 -23 14 -40 8 -18 17 -57 20 -87 3 -30 9 -77 12 -104 13 -98
-21 -294 -68 -391 -71 -148 -233 -312 -383 -387 -155 -78 -255 -94 -495 -78
-146 9 -227 23 -277 46 -17 7 -35 14 -40 14 -6 0 -30 11 -54 25 -24 13 -54 29
-66 34 -11 5 -24 15 -28 20 -3 6 -17 11 -30 11 -20 0 -31 -14 -67 -87 -55
-112 -172 -309 -198 -333 -3 -3 -27 -32 -52 -65 -201 -263 -493 -407 -827
-406 -136 1 -345 34 -418 67 -17 8 -40 14 -51 14 -12 0 -23 4 -27 9 -3 5 -19
12 -35 16 -17 4 -55 20 -85 36 -30 16 -59 29 -65 29 -5 0 -40 18 -76 41 -37
22 -77 45 -88 50 -27 13 -46 24 -132 82 -45 29 -78 45 -88 41 -9 -3 -16 -9
-16 -13 0 -21 -191 -200 -306 -287 -73 -55 -277 -184 -291 -184 -4 0 -34 -13
-67 -28 -112 -52 -137 -62 -157 -62 -11 0 -33 -6 -48 -14 -51 -27 -230 -39
-360 -26 -63 7 -128 18 -143 26 -15 8 -38 14 -52 14 -13 0 -37 6 -53 14 -15 8
-59 29 -98 48 -88 41 -167 101 -233 174 -57 63 -122 166 -122 193 0 9 -5 22
-11 28 -37 37 -66 370 -39 447 14 40 24 198 13 211 -4 6 -39 26 -77 45 -222
113 -458 337 -555 526 -62 122 -74 175 -78 351 -3 120 -1 159 12 188 8 21 15
50 15 66 0 16 7 45 16 66 33 78 79 168 91 181 7 7 13 17 13 21 0 8 94 106 135
141 89 74 228 141 405 193 102 31 181 47 225 47 24 0 46 4 49 8 3 5 -2 70 -11
145 -16 126 -16 147 -1 269 17 145 32 216 54 265 8 17 14 40 14 51 0 12 4 23
9 26 5 3 12 17 15 31 6 25 61 120 81 141 5 6 30 35 55 65 61 73 206 219 255
256 82 62 203 114 315 134 74 14 257 19 315 9 36 -6 46 19 18 48 -10 10 -25
29 -33 41 -8 13 -23 32 -32 43 -10 12 -18 24 -18 27 0 3 -16 24 -35 46 -49 56
-103 148 -111 190 -3 19 -10 38 -15 41 -16 10 -10 165 8 214 42 113 141 215
230 236 15 4 33 10 38 15 28 21 152 17 231 -8z"/>
<path d="M3410 7050 c0 -5 6 -10 14 -10 8 0 18 5 21 10 3 6 -3 10 -14 10 -12
0 -21 -4 -21 -10z"/>
<path d="M3357 7033 c-12 -11 -8 -23 7 -23 7 0 19 7 26 15 10 12 9 15 -7 15
-11 0 -23 -3 -26 -7z"/>
<path d="M3672 7028 c3 -7 13 -15 22 -16 12 -3 17 1 14 10 -3 7 -13 15 -22 16
-12 3 -17 -1 -14 -10z"/>
<path d="M3716 7001 c-6 -8 42 -46 49 -39 2 2 -7 13 -20 26 -13 12 -26 18 -29
13z"/>
<path d="M3210 6835 c1 -26 2 -28 11 -12 8 14 8 22 0 30 -8 8 -11 3 -11 -18z"/>
<path d="M3205 6698 c-4 -9 -2 -25 3 -35 10 -17 11 -17 17 -1 4 9 2 25 -3 35
-10 17 -11 17 -17 1z"/>
<path d="M3230 6619 c0 -12 14 -44 30 -71 17 -26 30 -53 30 -58 0 -6 7 -13 15
-16 8 -4 15 -10 15 -15 0 -9 38 -68 51 -79 3 -3 8 -13 12 -22 3 -10 11 -18 17
-18 16 0 12 30 -5 36 -8 4 -15 12 -15 19 0 6 -13 31 -30 53 -16 23 -30 46 -30
51 0 5 -6 16 -12 23 -13 14 -42 69 -52 101 -8 24 -26 21 -26 -4z"/>
<path d="M3412 6309 c1 -12 9 -24 16 -27 9 -3 13 3 10 19 -1 12 -9 24 -16 27
-9 3 -13 -3 -10 -19z"/>
<path d="M3440 6240 c0 -20 5 -30 15 -30 16 0 19 17 9 44 -10 26 -24 18 -24
-14z"/>
<path d="M3130 6098 c-19 -5 -55 -13 -80 -18 -131 -27 -268 -108 -380 -227
-132 -138 -176 -205 -235 -348 -34 -81 -54 -199 -62 -354 -5 -122 1 -189 31
-322 24 -105 -17 -140 -179 -155 -38 -4 -82 -13 -97 -20 -15 -8 -40 -14 -55
-14 -15 0 -41 -7 -57 -15 -15 -8 -36 -15 -45 -15 -9 0 -29 -7 -45 -15 -15 -8
-36 -15 -46 -15 -10 0 -23 -7 -30 -15 -7 -8 -21 -15 -31 -15 -10 0 -21 -5 -24
-11 -4 -5 -17 -14 -28 -20 -100 -43 -202 -149 -258 -269 -37 -77 -49 -109 -49
-127 0 -10 -7 -36 -15 -58 -19 -53 -20 -230 -1 -287 8 -24 17 -56 21 -73 26
-114 152 -283 310 -415 41 -33 214 -150 223 -150 17 0 88 -41 120 -70 42 -37
47 -66 32 -205 -27 -252 -28 -283 -5 -410 14 -82 106 -238 176 -301 32 -28
127 -94 136 -94 5 0 35 -14 68 -30 33 -16 68 -30 78 -30 10 0 30 -6 45 -14 15
-7 77 -19 137 -26 94 -11 126 -10 220 3 102 14 176 33 217 57 10 6 22 10 28
10 12 0 158 70 215 102 138 80 244 163 406 321 67 64 129 117 138 117 24 0 83
-31 191 -101 48 -30 107 -63 225 -122 17 -8 46 -22 65 -30 19 -9 51 -23 72
-31 20 -9 41 -16 46 -16 6 0 23 -6 39 -14 100 -50 369 -85 521 -68 125 14 203
29 216 42 5 5 18 10 28 10 9 0 47 17 83 38 37 20 75 42 87 48 62 36 220 187
253 243 6 10 26 38 46 62 51 63 128 191 195 327 25 51 57 101 71 112 30 24 87
26 123 5 14 -8 32 -17 40 -21 8 -4 43 -19 78 -35 34 -16 69 -29 78 -29 8 0 25
-5 37 -12 12 -7 72 -17 132 -24 267 -31 413 -8 584 91 75 43 241 238 241 282
0 7 6 27 14 45 37 87 51 248 27 311 -6 16 -11 38 -11 50 0 12 -7 35 -15 51 -8
15 -15 36 -15 46 0 10 -7 23 -15 30 -8 7 -15 17 -15 22 0 50 -451 518 -499
518 -6 0 -11 4 -11 9 0 9 -68 55 -140 94 -19 11 -44 26 -55 33 -11 8 -27 14
-36 14 -9 0 -22 7 -29 15 -7 8 -20 15 -29 15 -20 1 -61 36 -87 75 -17 27 -19
45 -16 170 2 102 -2 156 -13 198 -8 32 -15 67 -15 77 0 11 -7 36 -16 57 -62
143 -100 206 -171 278 -51 51 -148 135 -157 135 -3 0 -22 12 -43 26 -21 14
-47 30 -58 35 -11 5 -27 13 -35 18 -14 8 -43 21 -120 54 -62 26 -104 39 -157
48 -29 5 -64 14 -78 19 -40 15 -233 12 -280 -5 -22 -8 -49 -15 -61 -15 -11 0
-29 -7 -40 -15 -10 -8 -27 -15 -36 -15 -9 0 -37 -13 -61 -30 -25 -16 -48 -30
-52 -30 -3 0 -32 -19 -63 -43 -31 -23 -68 -50 -82 -59 -14 -9 -35 -24 -46 -34
-12 -11 -52 -44 -90 -74 -37 -30 -84 -72 -104 -94 -29 -30 -42 -37 -58 -32
-12 4 -22 13 -22 19 0 43 -229 306 -350 402 -53 42 -167 113 -222 139 -32 15
-60 31 -63 37 -4 5 -13 9 -20 9 -8 0 -38 11 -67 24 -77 34 -154 61 -228 81
-36 9 -81 21 -100 26 -19 6 -64 14 -100 19 -36 4 -83 13 -105 19 -49 13 -237
13 -285 -1z m395 -101 c55 -8 111 -20 125 -25 14 -6 57 -18 95 -27 39 -9 84
-25 101 -36 17 -10 38 -19 45 -19 34 0 265 -123 355 -188 27 -20 71 -57 95
-82 25 -25 73 -71 107 -103 34 -32 62 -64 62 -71 0 -7 33 -47 73 -89 71 -74
75 -77 119 -77 56 0 133 38 177 85 16 18 39 36 50 40 12 3 21 11 21 16 0 5 6
9 13 9 8 0 22 9 33 21 19 21 153 118 209 151 43 26 114 57 178 78 40 12 230
16 248 4 6 -3 42 -10 81 -15 39 -5 82 -16 94 -24 13 -8 30 -15 39 -15 24 0
206 -90 242 -119 18 -14 45 -35 60 -46 40 -29 153 -144 153 -157 0 -5 9 -20
21 -32 47 -49 117 -240 117 -321 1 -67 9 -218 15 -250 15 -90 86 -172 199
-230 75 -37 147 -83 229 -145 89 -68 249 -211 291 -262 24 -28 66 -77 93 -108
60 -69 115 -157 115 -185 0 -12 5 -26 10 -31 6 -6 17 -37 25 -69 13 -49 14
-75 5 -152 -11 -88 -25 -130 -78 -228 -24 -43 -130 -153 -176 -182 -99 -63
-252 -96 -416 -88 -133 6 -190 18 -310 66 -120 47 -236 75 -275 65 -50 -13
-129 -100 -176 -193 -43 -85 -127 -223 -168 -273 -11 -14 -39 -50 -62 -80 -54
-71 -141 -155 -203 -197 -26 -18 -50 -33 -53 -33 -2 0 -19 -10 -36 -23 -18
-13 -52 -30 -77 -37 -25 -8 -49 -17 -55 -20 -5 -4 -28 -10 -50 -14 -22 -3 -64
-10 -93 -15 -72 -13 -264 -5 -343 14 -35 9 -80 20 -99 25 -88 22 -126 34 -140
45 -8 7 -33 18 -55 25 -33 11 -117 51 -185 89 -8 4 -33 16 -55 26 -22 11 -69
38 -105 60 -110 70 -209 92 -261 57 -88 -58 -108 -75 -149 -122 -25 -28 -56
-58 -70 -65 -14 -7 -41 -28 -60 -47 -90 -87 -301 -217 -435 -268 -30 -12 -123
-40 -180 -55 -56 -15 -243 -22 -290 -11 -16 4 -52 12 -80 18 -61 14 -204 81
-265 124 -92 66 -168 185 -193 304 -18 79 -17 166 2 375 10 117 5 158 -28 211
-25 41 -116 116 -174 144 -26 12 -90 55 -142 96 -52 41 -97 74 -99 74 -2 0
-35 32 -73 71 -40 41 -83 99 -105 140 -20 38 -41 75 -46 82 -12 15 -52 200
-52 242 0 68 40 211 80 289 97 187 252 285 560 355 179 41 213 53 263 95 38
31 51 51 63 93 8 29 13 56 11 61 -3 4 -13 52 -22 107 -19 107 -16 335 3 372 6
10 12 38 15 63 9 73 18 109 33 121 8 6 14 22 14 35 0 12 5 26 11 30 6 3 19 25
29 49 18 43 33 64 80 115 14 15 48 52 76 83 29 31 55 57 59 57 4 0 22 12 40
28 73 62 154 101 255 123 102 21 290 20 445 -4z"/>
<path d="M5259 5469 c-138 -43 -219 -97 -312 -208 -85 -102 -170 -270 -213
-421 -28 -96 -27 -469 0 -585 29 -125 47 -172 104 -280 161 -304 432 -447 683
-359 41 14 79 32 84 38 6 7 19 18 30 24 19 11 19 11 -2 12 -13 0 -23 -4 -23
-10 0 -5 -24 -10 -52 -10 -29 -1 -64 -7 -78 -14 -25 -15 -125 -11 -145 4 -5 5
-28 11 -50 15 -60 11 -162 71 -226 134 -56 56 -149 183 -149 203 0 6 -6 19
-13 27 -22 27 -61 133 -85 236 -13 53 -17 117 -17 260 0 191 12 290 41 347 8
14 14 33 14 42 0 22 58 140 103 210 56 86 162 185 237 223 36 18 99 39 140 47
69 14 81 14 159 -4 46 -10 88 -23 94 -29 6 -6 17 -11 25 -11 29 0 231 -176
232 -202 0 -4 12 -24 26 -45 27 -40 94 -177 94 -193 0 -5 5 -21 12 -37 39 -95
48 -161 55 -371 5 -190 4 -217 -12 -252 -12 -26 -15 -48 -10 -67 l7 -28 20 40
c36 72 67 259 68 411 1 265 -104 522 -282 696 -167 161 -366 217 -559 157z"/>
<path d="M3335 5455 c-27 -7 -66 -19 -85 -26 -55 -21 -185 -115 -230 -167 -50
-56 -129 -167 -140 -197 -4 -11 -17 -41 -28 -65 -10 -25 -24 -57 -30 -72 -9
-23 -35 -124 -57 -224 -3 -12 -5 -95 -5 -185 -1 -140 3 -180 24 -273 14 -60
30 -114 36 -120 5 -5 10 -19 10 -31 0 -42 92 -209 158 -288 144 -171 296 -247
469 -234 75 5 193 40 193 57 0 4 10 11 23 15 21 7 21 8 -6 12 -16 3 -35 -1
-44 -8 -10 -9 -53 -13 -136 -13 -126 -1 -148 5 -252 61 -148 80 -293 282 -348
483 -42 155 -47 191 -47 335 0 143 7 196 47 335 26 95 86 220 136 285 38 49
149 165 159 165 4 0 27 14 51 30 25 17 52 30 60 30 8 0 31 7 50 15 48 20 193
20 227 0 14 -8 33 -14 42 -15 23 0 110 -54 172 -105 156 -129 267 -375 297
-657 12 -114 2 -338 -18 -385 -14 -35 -9 -78 8 -68 5 4 9 16 9 29 0 12 5 27
11 33 6 6 15 29 20 50 4 21 15 65 23 98 24 91 31 230 16 326 -6 46 -13 95 -15
109 -6 49 -45 171 -81 247 -100 214 -282 375 -476 422 -61 14 -180 13 -243 -4z"/>
<path d="M5390 5091 c-19 -4 -51 -17 -70 -29 -19 -12 -44 -26 -55 -31 -25 -11
-128 -120 -149 -158 -75 -136 -99 -211 -116 -370 -13 -127 12 -351 47 -418 6
-11 21 -42 34 -68 45 -92 53 -102 119 -169 65 -65 100 -86 190 -114 81 -25
144 -16 260 37 47 22 172 141 190 180 6 13 22 44 35 69 14 25 25 52 25 60 0 9
5 21 12 28 6 6 14 30 18 54 5 24 13 70 20 103 23 116 2 376 -38 470 -75 173
-140 254 -259 321 -54 30 -72 35 -145 39 -46 2 -99 0 -118 -4z m180 -138 c82
-26 176 -126 223 -236 33 -76 47 -144 32 -159 -3 -3 -26 -2 -52 2 -63 10 -102
-3 -155 -49 -103 -91 -127 -205 -69 -325 17 -36 31 -78 31 -95 0 -40 15 -77
49 -120 57 -72 18 -116 -112 -127 -258 -24 -451 317 -392 692 24 155 69 256
150 338 90 91 182 116 295 79z m218 -511 c40 -41 52 -71 52 -136 0 -62 -2 -67
-38 -106 -53 -55 -98 -52 -149 9 -19 22 -22 39 -23 100 0 67 3 76 31 112 26
33 36 39 70 39 24 0 46 -7 57 -18z m-2 -337 c11 -17 14 -35 10 -59 -7 -35 -18
-48 -49 -59 -25 -9 -67 34 -67 70 0 68 72 100 106 48z"/>
<path d="M3495 5083 c-33 -8 -98 -31 -130 -45 -44 -19 -116 -83 -164 -145 -47
-62 -79 -126 -114 -228 -28 -82 -31 -104 -35 -250 -4 -165 4 -219 52 -351 68
-186 218 -334 361 -355 70 -10 181 8 227 37 21 13 42 24 48 24 15 0 139 126
150 153 6 12 18 36 28 52 24 40 47 104 73 200 32 118 32 336 0 455 -22 79 -75
208 -90 220 -4 3 -17 21 -29 41 -25 41 -110 117 -159 142 -73 38 -175 61 -218
50z m132 -155 c79 -29 156 -108 206 -210 67 -139 60 -202 -21 -178 -34 11 -44
10 -78 -8 -56 -29 -131 -110 -149 -161 -25 -71 -19 -124 20 -202 21 -43 35
-85 35 -108 0 -24 11 -54 31 -86 50 -79 52 -91 21 -113 -68 -48 -189 -54 -268
-14 -102 52 -206 213 -239 369 -28 129 -14 326 30 450 35 99 110 197 183 240
80 47 144 53 229 21z m211 -504 c37 -25 52 -67 52 -141 -1 -55 -5 -73 -23 -95
-50 -60 -128 -57 -166 8 -25 42 -28 131 -6 174 32 63 96 87 143 54z m-4 -330
c31 -30 16 -111 -22 -125 -56 -21 -100 73 -57 121 22 24 58 26 79 4z"/>
</g>
</svg>
